Flexion_states
version=1
nRows=7
nColumns=41
inDegrees=yes

# SIMM Motion File Header:
name Flexion_states
datacolumns 41
datarows 7
otherdata 1
range 2.07528226 2.70167842
endheader
time	/jointset/ground_thorax/thorax_tilt/value	/jointset/ground_thorax/thorax_tilt/speed	/jointset/ground_thorax/thorax_list/value	/jointset/ground_thorax/thorax_list/speed	/jointset/ground_thorax/thorax_rotation/value	/jointset/ground_thorax/thorax_rotation/speed	/jointset/ground_thorax/thorax_tx/value	/jointset/ground_thorax/thorax_tx/speed	/jointset/ground_thorax/thorax_ty/value	/jointset/ground_thorax/thorax_ty/speed	/jointset/ground_thorax/thorax_tz/value	/jointset/ground_thorax/thorax_tz/speed	/jointset/sternoclavicular/sternoclavicular_r2/value	/jointset/sternoclavicular/sternoclavicular_r2/speed	/jointset/sternoclavicular/sternoclavicular_r3/value	/jointset/sternoclavicular/sternoclavicular_r3/speed	/jointset/unrotscap/unrotscap_r3/value	/jointset/unrotscap/unrotscap_r3/speed	/jointset/unrotscap/unrotscap_r2/value	/jointset/unrotscap/unrotscap_r2/speed	/jointset/acromioclavicular/acromioclavicular_r2/value	/jointset/acromioclavicular/acromioclavicular_r2/speed	/jointset/acromioclavicular/acromioclavicular_r3/value	/jointset/acromioclavicular/acromioclavicular_r3/speed	/jointset/acromioclavicular/acromioclavicular_r1/value	/jointset/acromioclavicular/acromioclavicular_r1/speed	/jointset/unrothum/unrothum_r1/value	/jointset/unrothum/unrothum_r1/speed	/jointset/unrothum/unrothum_r3/value	/jointset/unrothum/unrothum_r3/speed	/jointset/unrothum/unrothum_r2/value	/jointset/unrothum/unrothum_r2/speed	/jointset/shoulder0/elv_angle/value	/jointset/shoulder0/elv_angle/speed	/jointset/shoulder1/shoulder_elv/value	/jointset/shoulder1/shoulder_elv/speed	/jointset/shoulder1/shoulder1_r2/value	/jointset/shoulder1/shoulder1_r2/speed	/jointset/shoulder2/shoulder_rot/value	/jointset/shoulder2/shoulder_rot/speed
      2.07528226	      0.00000000	     -0.00000000	     -0.00000000	     -0.00000000	     -0.00000000	     -0.00000000	     -0.00000000	     -0.00000000	     -0.00000000	     -0.00000000	     -0.00000000	     -0.00000000	    -11.68180510	     15.67853769	      4.94785739	     -6.64068335	     -4.94785739	      6.64068335	     11.68180510	    -15.67853769	     -2.36530970	      3.17456051	     19.11534583	    -25.65533899	      8.59240972	    -11.53215778	     -8.59240972	     11.53215778	    -19.11534583	     25.65533899	      2.36530970	     -3.17456051	     90.00000000	      0.00000000	     48.27237907	    -64.78795937	    -90.00000000	      0.00000000	      0.00000000	      0.00000000
      2.13197947	      0.00000000	     -0.00000000	     -0.00000000	     -0.00000000	     -0.00000000	     -0.00000000	     -0.00000000	     -0.00000000	     -0.00000000	     -0.00000000	     -0.00000000	     -0.00000000	    -10.80918829	     15.07334166	      4.57825839	     -6.38435108	     -4.57825839	      6.38435108	     10.80918829	    -15.07334166	     -2.18862390	      3.05202157	     17.68745246	    -24.66503560	      7.95056703	    -11.08701320	     -7.95056703	     11.08701320	    -17.68745246	     24.66503560	      2.18862390	     -3.05202157	     90.00000000	      0.00000000	     44.66649033	    -62.28712568	    -90.00000000	      0.00000000	      0.00000000	      0.00000000
      2.18867667	      0.00000000	     -0.00000000	     -0.00000000	     -0.00000000	     -0.00000000	     -0.00000000	     -0.00000000	     -0.00000000	     -0.00000000	     -0.00000000	     -0.00000000	     -0.00000000	     -9.97476493	     14.34874738	      4.22483631	     -6.07744738	     -4.22483631	      6.07744738	      9.97476493	    -14.34874738	     -2.01967145	      2.90530710	     16.32205635	    -23.47935665	      7.33681707	    -10.55404669	     -7.33681707	     10.55404669	    -16.32205635	     23.47935665	      2.01967145	     -2.90530710	     90.00000000	      0.00000000	     41.21842724	    -59.29290607	    -90.00000000	      0.00000000	      0.00000000	      0.00000000
      2.26445502	      0.00000000	     -0.00000000	     -0.00000000	     -0.00000000	     -0.00000000	     -0.00000000	     -0.00000000	     -0.00000000	     -0.00000000	     -0.00000000	     -0.00000000	     -0.00000000	     -8.92644321	     13.31219811	      3.78081706	     -5.63841438	     -3.78081706	      5.63841438	      8.92644321	    -13.31219811	     -1.80740926	      2.69542857	     14.60665090	    -21.78321487	      6.56573678	     -9.79162548	     -6.56573678	      9.79162548	    -14.60665090	     21.78321487	      1.80740926	     -2.69542857	     90.00000000	      0.00000000	     36.88647829	    -55.00960406	    -90.00000000	      0.00000000	      0.00000000	      0.00000000
      2.35924203	      0.00000000	     -0.00000000	     -0.00000000	     -0.00000000	     -0.00000000	     -0.00000000	     -0.00000000	     -0.00000000	     -0.00000000	     -0.00000000	     -0.00000000	     -0.00000000	     -7.72733190	     11.98721990	      3.27293051	     -5.07721658	     -3.27293051	      5.07721658	      7.72733190	    -11.98721990	     -1.56461548	      2.42714950	     12.64450317	    -19.61510673	      5.68374504	     -8.81705386	     -5.68374504	      8.81705386	    -12.64450317	     19.61510673	      1.56461548	     -2.42714950	     90.00000000	      0.00000000	     31.93142597	    -49.53443564	    -90.00000000	      0.00000000	      0.00000000	      0.00000000
      2.49097410	      0.00000000	     -0.00000000	     -0.00000000	     -0.00000000	     -0.00000000	     -0.00000000	     -0.00000000	     -0.00000000	     -0.00000000	     -0.00000000	     -0.00000000	     -0.00000000	     -6.26962135	     10.14596386	      2.65551360	     -4.29734804	     -2.65551360	      4.29734804	      6.26962135	    -10.14596386	     -1.26946102	      2.05433548	     10.25920046	    -16.60219514	      4.61154376	     -7.46274036	     -4.61154376	      7.46274036	    -10.25920046	     16.60219514	      1.26946102	     -2.05433548	     90.00000000	      0.00000000	     25.90777158	    -41.92586753	    -90.00000000	      0.00000000	      0.00000000	      0.00000000
      2.70167842	      0.00000000	      0.00000000	     -0.00000000	     -0.00000000	     -0.00000000	     -0.00000000	     -0.00000000	     -0.00000000	     -0.00000000	     -0.00000000	     -0.00000000	     -0.00000000	     -4.43955576	      7.23233377	      1.88038480	     -3.06327282	     -1.88038480	      3.06327282	      4.43955576	     -7.23233377	     -0.89891281	      1.46438920	      7.26460019	    -11.83452043	      3.26546126	     -5.31965517	     -3.26546126	      5.31965517	     -7.26460019	     11.83452043	      0.89891281	     -1.46438920	     90.00000000	      0.00000000	     18.34544545	    -29.88595975	    -90.00000000	      0.00000000	      0.00000000	      0.00000000
